<svg xmlns="http://www.w3.org/2000/svg" version="1.1" xmlns:xlink="http://www.w3.org/1999/xlink" xmlns:svgjs="http://svgjs.dev/svgjs" width="1500" height="1500" viewBox="0 0 1500 1500"><rect width="1500" height="1500" fill="#000000"></rect><g transform="matrix(0.6666666666666666,0,0,0.6666666666666666,249.52475706413264,573.0218182835906)"><svg viewBox="0 0 307 106" data-background-color="#0a1627" preserveAspectRatio="xMidYMid meet" height="517" width="1500" xmlns="http://www.w3.org/2000/svg" xmlns:xlink="http://www.w3.org/1999/xlink"><g id="tight-bounds" transform="matrix(1,0,0,1,0.14589958131128355,1.4420362464146308)"><svg viewBox="0 0 306.70820083737743 104.36669980468749" height="104.36669980468749" width="306.70820083737743"><g><svg viewBox="0 0 306.70820083737743 104.36669980468749" height="104.36669980468749" width="306.70820083737743"><g><svg viewBox="0 0 306.70820083737743 104.36669980468749" height="104.36669980468749" width="306.70820083737743"><g id="textblocktransform"><svg viewBox="0 0 306.70820083737743 104.36669980468749" height="104.36669980468749" width="306.70820083737743" id="textblock"><g><svg viewBox="0 0 306.70820083737743 73.63164062499999" height="73.63164062499999" width="306.70820083737743"><g><svg><g></g><g></g></svg></g><g><svg><g></g><g><svg></svg></g></svg></g><g id="text-0"><svg viewBox="0 0 306.70820083737743 73.63164062499999" height="73.63164062499999" width="306.70820083737743"><g transform="matrix(1,0,0,1,0,14.306054687499994)"><svg width="64.111328125" viewBox="4 -35.01 64.11 45.019999999999996" height="45.01953125" data-palette-color="#fe0039"><path d="M23.71-8.59L23.71-8.59Q23.71-6.81 23.03-5.25 22.36-3.69 21.19-2.51 20.02-1.34 18.44-0.67 16.87 0 15.09 0L15.09 0 4 0 4-35.01 15.09-35.01Q16.87-35.01 18.44-34.34 20.02-33.67 21.19-32.5 22.36-31.32 23.03-29.75 23.71-28.17 23.71-26.39L23.71-26.39 23.71-26.05Q23.71-24.8 23.38-23.67 23.05-22.53 22.44-21.56 21.83-20.58 21-19.79 20.17-18.99 19.14-18.46L19.14-18.46Q20.17-17.92 21-17.13 21.83-16.33 22.44-15.34 23.05-14.36 23.38-13.22 23.71-12.08 23.71-10.84L23.71-10.84 23.71-8.59ZM20.56-8.59L20.56-11.35Q20.56-12.52 20.12-13.54 19.68-14.55 18.91-15.31 18.14-16.06 17.13-16.5 16.11-16.94 14.94-16.94L14.94-16.94 7.15-16.94 7.15-3 14.94-3Q16.11-3 17.13-3.44 18.14-3.88 18.91-4.64 19.68-5.4 20.12-6.41 20.56-7.42 20.56-8.59L20.56-8.59ZM20.56-25.56L20.56-26.39Q20.56-27.56 20.12-28.58 19.68-29.59 18.91-30.36 18.14-31.13 17.13-31.57 16.11-32.01 14.94-32.01L14.94-32.01 7.15-32.01 7.15-19.95 14.94-19.95Q16.11-19.95 17.13-20.39 18.14-20.83 18.91-21.59 19.68-22.36 20.12-23.38 20.56-24.39 20.56-25.56L20.56-25.56ZM45.41 0L44.41 0 42.75-2.54Q41.72-1.15 40.18-0.33 38.64 0.49 36.81 0.49L36.81 0.49 36.06 0.49Q34.54 0.49 33.2-0.09 31.86-0.66 30.86-1.66 29.86-2.66 29.28-4 28.71-5.35 28.71-6.86L28.71-6.86 28.71-25 31.71-25 31.71-6.69Q31.71-5.79 32.05-4.99 32.39-4.2 32.98-3.61 33.57-3.03 34.36-2.69 35.15-2.34 36.06-2.34L36.06-2.34 38.06-2.34Q38.96-2.34 39.76-2.69 40.55-3.03 41.14-3.61 41.72-4.2 42.06-4.99 42.4-5.79 42.4-6.69L42.4-6.69 42.4-25 45.41-25 45.41 0ZM68.11-25L55.46 10.01 52.56 10.01 57-2.15 48.9-25 51.9-25 58.42-6.05 58.52-4.76 58.61-6.05 65.11-25 68.11-25Z" opacity="1" transform="matrix(1,0,0,1,0,0)" fill="#fe0039" class="undefined-tk-0"></path></svg></g><g><svg xmlns="http://www.w3.org/2000/svg" data-name="Layer 1" viewBox="4.17 10.999999957875424 55.654979999592285 42.040205701580426" x="81.4953125" y="0" height="73.63164062499999" width="97.47734146237741" class="icon-dxe-0" data-fill-palette-color="accent" id="dxe-0"><path d="M59.43 18.81A2 2 0 0 0 57.82 18H45.54A10 10 0 0 1 46 20V21A10 10 0 0 1 26 21C26 20.66 26 20.33 26.05 20A10 10 0 0 1 26.46 18H12.81L11.54 13.23A3 3 0 0 0 8.64 11H4.17V13H8.64A1 1 0 0 1 9.64 13.74L17 41.52A2 2 0 0 0 18.94 43H51.43A2 2 0 0 0 53.35 41.58L59.74 20.58A2 2 0 0 0 59.43 18.81M35.17 39H33.17V37H35.17ZM50.17 39H37.17V37H50.17Z" fill="#ffffff" data-fill-palette-color="accent"></path><path d="M53.17 47A3 3 0 0 0 51 48 28.65 28.65 0 0 0 36.19 44 28.6 28.6 0 0 0 21.39 48 3 3 0 1 0 22.19 50 1 1 0 0 0 22.19 49.82 26.87 26.87 0 0 1 36.19 46 27 27 0 0 1 50.19 49.81 1 1 0 0 0 50.19 50 3 3 0 1 0 53.19 47ZM19.17 51A1 1 0 1 1 20.17 50 1 1 0 0 1 19.17 51M53.17 51A1 1 0 1 1 54.17 50 1 1 0 0 1 53.17 51" fill="#ffffff" data-fill-palette-color="accent"></path><path d="M36 13A8 8 0 1 0 44 21 8 8 0 0 0 36 13M40.39 21.93L37 19.29V26H35V19.29L31.61 21.93 30.39 20.35 36 16 41.61 20.37Z" fill="#ffffff" data-fill-palette-color="accent"></path></svg></g><g transform="matrix(1,0,0,1,196.35663833737743,8.812890624999994)"><svg width="110.35156250000001" viewBox="3.49 -35.5 110.34 35.99" height="35.986328125" data-palette-color="#fe0039"><path d="M23.19-8.11L23.19-8.11Q23.19-6.32 22.52-4.76 21.85-3.2 20.68-2.03 19.51-0.85 17.94-0.18 16.38 0.49 14.6 0.49L14.6 0.49 12.11 0.49Q10.33 0.49 8.75-0.18 7.18-0.85 6.01-2.03 4.83-3.2 4.16-4.76 3.49-6.32 3.49-8.11L3.49-8.11 3.49-26.9Q3.49-28.69 4.16-30.25 4.83-31.81 6.01-32.98 7.18-34.16 8.75-34.83 10.33-35.5 12.11-35.5L12.11-35.5 14.6-35.5Q16.38-35.5 17.94-34.83 19.51-34.16 20.68-32.98 21.85-31.81 22.52-30.25 23.19-28.69 23.19-26.9L23.19-26.9 23.19-8.11ZM20.04-8.11L20.04-26.9Q20.04-28.08 19.6-29.09 19.17-30.1 18.41-30.86 17.65-31.62 16.64-32.06 15.63-32.5 14.45-32.5L14.45-32.5 12.26-32.5Q11.08-32.5 10.07-32.06 9.06-31.62 8.29-30.86 7.52-30.1 7.08-29.09 6.64-28.08 6.64-26.9L6.64-26.9 6.64-8.11Q6.64-6.93 7.08-5.92 7.52-4.91 8.29-4.14 9.06-3.37 10.07-2.93 11.08-2.49 12.26-2.49L12.26-2.49 14.45-2.49Q15.63-2.49 16.64-2.93 17.65-3.37 18.41-4.14 19.17-4.91 19.6-5.92 20.04-6.93 20.04-8.11L20.04-8.11ZM46.41 0L43.41 0 43.41-18.31Q43.41-19.21 43.06-20.01 42.72-20.8 42.14-21.39 41.55-21.97 40.76-22.31 39.96-22.66 39.06-22.66L39.06-22.66 37.06-22.66Q36.15-22.66 35.36-22.31 34.57-21.97 33.98-21.39 33.4-20.8 33.05-20.01 32.71-19.21 32.71-18.31L32.71-18.31 32.71 0 29.71 0 29.71-25 30.71-25 32.35-22.46Q33.37-23.85 34.92-24.67 36.47-25.49 38.3-25.49L38.3-25.49 39.06-25.49Q40.57-25.49 41.92-24.91 43.26-24.34 44.26-23.34 45.26-22.34 45.83-21 46.41-19.65 46.41-18.14L46.41-18.14 46.41 0ZM56.42 0L53.41 0 53.41-35.01 56.42-35.01 56.42 0ZM67.67-31.01L64.18-31.01 64.18-35.01 67.67-35.01 67.67-31.01ZM67.42 0L64.42 0 64.42-25 67.42-25 67.42 0ZM91.13 0L88.12 0 88.12-18.31Q88.12-19.21 87.78-20.01 87.44-20.8 86.86-21.39 86.27-21.97 85.48-22.31 84.68-22.66 83.78-22.66L83.78-22.66 81.78-22.66Q80.87-22.66 80.08-22.31 79.29-21.97 78.7-21.39 78.12-20.8 77.77-20.01 77.43-19.21 77.43-18.31L77.43-18.31 77.43 0 74.43 0 74.43-25 75.43-25 77.07-22.46Q78.09-23.85 79.64-24.67 81.19-25.49 83.02-25.49L83.02-25.49 83.78-25.49Q85.29-25.49 86.64-24.91 87.98-24.34 88.98-23.34 89.98-22.34 90.55-21 91.13-19.65 91.13-18.14L91.13-18.14 91.13 0ZM113.83-6.86L113.83-6.86Q113.83-5.35 113.26-4 112.68-2.66 111.68-1.66 110.68-0.66 109.34-0.09 108 0.49 106.48 0.49L106.48 0.49 104.48 0.49Q102.97 0.49 101.62-0.09 100.28-0.66 99.28-1.66 98.28-2.66 97.7-4 97.13-5.35 97.13-6.86L97.13-6.86 97.13-18.14Q97.13-19.65 97.7-21 98.28-22.34 99.28-23.34 100.28-24.34 101.62-24.91 102.97-25.49 104.48-25.49L104.48-25.49 106.48-25.49Q108-25.49 109.34-24.91 110.68-24.34 111.68-23.34 112.68-22.34 113.26-21 113.83-19.65 113.83-18.14L113.83-18.14 113.83-12.26 100.13-12.26 100.13-6.69Q100.13-5.79 100.48-4.99 100.82-4.2 101.4-3.61 101.99-3.03 102.78-2.69 103.58-2.34 104.48-2.34L104.48-2.34 106.48-2.34Q107.38-2.34 108.18-2.69 108.97-3.03 109.56-3.61 110.14-4.2 110.49-4.99 110.83-5.79 110.83-6.69L110.83-6.69 110.83-8.35 113.83-7.86 113.83-6.86ZM110.83-14.6L110.83-18.31Q110.83-19.21 110.49-20.01 110.14-20.8 109.56-21.39 108.97-21.97 108.18-22.31 107.38-22.66 106.48-22.66L106.48-22.66 104.48-22.66Q103.58-22.66 102.78-22.31 101.99-21.97 101.4-21.39 100.82-20.8 100.48-20.01 100.13-19.21 100.13-18.31L100.13-18.31 100.13-14.6 110.83-14.6Z" opacity="1" transform="matrix(1,0,0,1,0,0)" fill="#fe0039" class="undefined-tk-1"></path></svg></g></svg></g></svg></g><g transform="matrix(1,0,0,1,75.60719346942174,82.12714902343748)"><svg viewBox="0 0 155.49381389853394 22.23955078125" height="22.23955078125" width="155.49381389853394"><g transform="matrix(1,0,0,1,0,0)"><svg width="155.49381389853394" viewBox="4 -37 339.76 48.6" height="22.23955078125" data-palette-color="#c1c1c1"><path d="M15.7 0.6L15.7 0.6Q13.45 0.6 11.48-0.23 9.5-1.05 8.2-2.15L8.2-2.15 8.2 0 4 0 4-37 8.5-37 8.5-23.3Q9.5-24.45 11.43-25.53 13.35-26.6 16-26.6L16-26.6Q19-26.6 21.63-25.03 24.25-23.45 25.85-20.48 27.45-17.5 27.45-13.25L27.45-13.25Q27.45-10.15 26.45-7.6 25.45-5.05 23.78-3.23 22.1-1.4 20-0.4 17.9 0.6 15.7 0.6ZM14.5-3.4L14.5-3.4Q16.95-3.4 18.82-4.6 20.7-5.8 21.78-8 22.85-10.2 22.85-13.1L22.85-13.1Q22.85-16.1 21.78-18.25 20.7-20.4 18.93-21.55 17.15-22.7 15-22.7L15-22.7Q12.85-22.7 11.13-21.63 9.4-20.55 8.5-19.3L8.5-19.3 8.5-5.4Q9.65-4.5 11.2-3.95 12.75-3.4 14.5-3.4ZM42.2 0.6L42.2 0.6Q39.95 0.6 37.95-0.35 35.95-1.3 34.7-3.43 33.45-5.55 33.45-9.1L33.45-9.1 33.45-26 37.95-26 37.95-9.7Q37.95-6.65 39.25-5.03 40.55-3.4 43.05-3.4L43.05-3.4Q45.1-3.4 47.02-4.23 48.95-5.05 50.45-6.45L50.45-6.45 50.45-26 54.95-26 54.95-6.75Q54.95-4.6 55.87-3.93 56.8-3.25 57.9-3.25L57.9-3.25 56.95 0.25Q52.3 0.25 51.2-3.45L51.2-3.45Q49.45-1.65 47.15-0.53 44.85 0.6 42.2 0.6ZM63.55 11.6L63.55 11.6Q62.05 11.6 60.92 11.3 59.8 11 59.15 10.6L59.15 10.6 60.15 6.85Q60.75 7.2 61.65 7.45 62.55 7.7 63.65 7.7L63.65 7.7Q65.75 7.7 67.4 6.35 69.05 5 70.55 1.05L70.55 1.05 71.7-1.95 69.3-1.95 59.15-24.8 63.15-26.6 72.85-4.95 80.4-26.4 84.55-24.8 75 1.3Q73.55 5.3 71.85 7.55 70.15 9.8 68.1 10.7 66.05 11.6 63.55 11.6ZM108.54 0L104.04 0 104.04-26 108.54-26 108.54 0ZM106.29-30.45L106.29-30.45Q104.99-30.45 104.07-31.4 103.14-32.35 103.14-33.6L103.14-33.6Q103.14-35.05 103.99-35.9 104.84-36.75 106.29-36.75L106.29-36.75Q107.59-36.75 108.52-35.83 109.44-34.9 109.44-33.6L109.44-33.6Q109.44-32.2 108.59-31.33 107.74-30.45 106.29-30.45ZM125.64 0.6L125.64 0.6Q121.89 0.6 119.71-1.88 117.54-4.35 117.54-8.95L117.54-8.95 117.54-21.15 113.04-21.15 113.04-25.05 117.64-25.05 118.59-33.25 122.04-33.25 122.04-25.05 129.24-25.05 129.24-21.15 122.04-21.15 122.04-8.6Q122.04-5.7 123.26-4.55 124.49-3.4 126.19-3.4L126.19-3.4Q127.44-3.4 128.56-3.8 129.69-4.2 130.64-4.75L130.64-4.75 131.89-1.15Q130.89-0.55 129.19 0.03 127.49 0.6 125.64 0.6ZM162.33 0.6L162.33 0.6Q158.63 0.6 155.68-1.13 152.73-2.85 151.06-5.93 149.38-9 149.38-13L149.38-13Q149.38-17.2 151.08-20.25 152.78-23.3 155.73-24.95 158.68-26.6 162.33-26.6L162.33-26.6Q165.98-26.6 168.91-24.95 171.83-23.3 173.56-20.28 175.28-17.25 175.28-13.1L175.28-13.1Q175.28-8.95 173.58-5.88 171.88-2.8 168.96-1.1 166.03 0.6 162.33 0.6ZM162.33-3.4L162.33-3.4Q166.28-3.4 168.48-6.08 170.68-8.75 170.68-13L170.68-13Q170.68-15.6 169.58-17.78 168.48-19.95 166.61-21.28 164.73-22.6 162.33-22.6L162.33-22.6Q158.38-22.6 156.18-20 153.98-17.4 153.98-13.1L153.98-13.1Q153.98-10.5 155.08-8.28 156.18-6.05 158.06-4.73 159.93-3.4 162.33-3.4ZM185.78 0L181.28 0 181.28-26 185.63-26 185.63-20.35Q186.28-22 187.38-23.43 188.48-24.85 190.13-25.73 191.78-26.6 193.98-26.6L193.98-26.6Q194.73-26.6 195.48-26.53 196.23-26.45 196.73-26.3L196.73-26.3 195.38-21.65Q194.43-22.05 193.13-22.05L193.13-22.05Q191.28-22.05 189.61-21 187.93-19.95 186.86-17.75 185.78-15.55 185.78-12.15L185.78-12.15 185.78 0ZM223.23 0.6L223.23 0.6Q220.28 0.6 217.9-0.15 215.53-0.9 213.98-2.1L213.98-2.1 215.88-5.85Q217.18-4.75 219.15-4.03 221.13-3.3 223.38-3.3L223.38-3.3Q226.18-3.3 227.6-4.23 229.03-5.15 229.03-6.6L229.03-6.6Q229.03-7.65 228.5-8.45 227.98-9.25 226.58-10.03 225.18-10.8 222.53-11.7L222.53-11.7Q218.88-12.95 217.05-14.68 215.23-16.4 215.23-19.45L215.23-19.45Q215.23-22.45 217.85-24.53 220.48-26.6 225.13-26.6L225.13-26.6Q227.63-26.6 229.58-26.08 231.53-25.55 233.08-24.75L233.08-24.75 231.83-21.05Q230.48-21.85 228.75-22.35 227.03-22.85 224.93-22.85L224.93-22.85Q222.33-22.85 220.98-21.8 219.63-20.75 219.63-19.5L219.63-19.5Q219.63-18.3 220.68-17.45 221.73-16.6 224.78-15.6L224.78-15.6Q229.73-13.95 231.68-11.95 233.63-9.95 233.63-6.95L233.63-6.95Q233.63-3.45 230.8-1.43 227.98 0.6 223.23 0.6ZM250.02 0.6L250.02 0.6Q244.42 0.6 241.15-2.98 237.87-6.55 237.87-13L237.87-13Q237.87-16.9 239.35-19.98 240.82-23.05 243.47-24.83 246.12-26.6 249.62-26.6L249.62-26.6Q253.37-26.6 255.85-24.98 258.32-23.35 259.57-20.6 260.82-17.85 260.82-14.55L260.82-14.55Q260.82-12.8 260.67-11.15L260.67-11.15 242.47-11.15Q242.92-7.5 245.02-5.45 247.12-3.4 250.57-3.4L250.57-3.4Q252.82-3.4 254.62-3.88 256.42-4.35 258.07-5.1L258.07-5.1 259.12-1.25Q257.32-0.45 255.07 0.08 252.82 0.6 250.02 0.6ZM242.42-14.8L242.42-14.8 256.67-14.8Q256.67-18.6 254.77-20.65 252.87-22.7 249.52-22.7L249.52-22.7Q246.62-22.7 244.72-20.68 242.82-18.65 242.42-14.8ZM274.72 0.6L274.72 0.6Q272.42 0.6 270.57-0.28 268.72-1.15 267.65-3.1 266.57-5.05 266.57-8.15L266.57-8.15 266.57-37 271.07-37 271.07-8.6Q271.07-5.9 272.2-4.6 273.32-3.3 275.32-3.3L275.32-3.3Q276.27-3.3 277.2-3.53 278.12-3.75 278.77-4.05L278.77-4.05 279.87-0.4Q278.97 0 277.65 0.3 276.32 0.6 274.72 0.6ZM291.52 0.6L291.52 0.6Q289.22 0.6 287.37-0.28 285.52-1.15 284.44-3.1 283.37-5.05 283.37-8.15L283.37-8.15 283.37-37 287.87-37 287.87-8.6Q287.87-5.9 288.99-4.6 290.12-3.3 292.12-3.3L292.12-3.3Q293.07-3.3 293.99-3.53 294.92-3.75 295.57-4.05L295.57-4.05 296.67-0.4Q295.77 0 294.44 0.3 293.12 0.6 291.52 0.6ZM320.41 0L315.91 0 315.91-26 320.41-26 320.41 0ZM318.16-30.45L318.16-30.45Q316.86-30.45 315.94-31.4 315.01-32.35 315.01-33.6L315.01-33.6Q315.01-35.05 315.86-35.9 316.71-36.75 318.16-36.75L318.16-36.75Q319.46-36.75 320.39-35.83 321.31-34.9 321.31-33.6L321.31-33.6Q321.31-32.2 320.46-31.33 319.61-30.45 318.16-30.45ZM337.51 0.6L337.51 0.6Q333.76 0.6 331.59-1.88 329.41-4.35 329.41-8.95L329.41-8.95 329.41-21.15 324.91-21.15 324.91-25.05 329.51-25.05 330.46-33.25 333.91-33.25 333.91-25.05 341.11-25.05 341.11-21.15 333.91-21.15 333.91-8.6Q333.91-5.7 335.14-4.55 336.36-3.4 338.06-3.4L338.06-3.4Q339.31-3.4 340.44-3.8 341.56-4.2 342.51-4.75L342.51-4.75 343.76-1.15Q342.76-0.55 341.06 0.03 339.36 0.6 337.51 0.6Z" opacity="1" transform="matrix(1,0,0,1,0,0)" fill="#ffffff" class="slogan-text-1" data-fill-palette-color="secondary" id="text-1"></path></svg></g></svg></g></svg></g></svg></g></svg></g><defs></defs></svg><rect width="306.70820083737743" height="104.36669980468749" fill="none" stroke="none" visibility="hidden"></rect></g></svg></g></svg>